<svg width="203" height="44" viewBox="0 0 203 44" fill="none" xmlns="http://www.w3.org/2000/svg">
<path d="M96.7632 3.32104C96.2209 3.59497 95.7182 3.95578 95.2775 4.39738L93.9941 5.68374H109.454C109.479 5.68374 109.503 5.68457 109.528 5.68484L107.256 4.1882L104.451 3.61572L100.631 2.83628L100.529 2.81552C99.2353 2.55156 97.9104 2.74137 96.7632 3.32077" fill="#F4733F"/>
<path d="M99.1606 41.1305L99.263 41.1515C100.557 41.4155 101.882 41.2257 103.029 40.646C103.571 40.3721 104.074 40.0113 104.514 39.5697L105.798 38.2833H109.454C109.479 38.2833 109.503 38.2825 109.528 38.2822L106.622 40.1961L103.077 42.5303C101.147 43.8012 98.6446 43.8012 96.7146 42.5303L92.5361 39.7786L95.3407 40.3511L99.1603 41.1305H99.1606Z" fill="#FFB259"/>
<path d="M103.077 1.43675C101.147 0.165615 98.6449 0.165615 96.7149 1.43675L93.1701 3.77094L90.2637 5.68483C90.2886 5.68456 90.3135 5.68373 90.3384 5.68373H93.9942L95.2776 4.39738C95.7183 3.95549 96.221 3.59496 96.7633 3.32103C97.9105 2.74136 99.2351 2.55155 100.529 2.81579L100.631 2.83654L104.451 3.61599L107.256 4.18847L103.077 1.43702V1.43675Z" fill="#FFB259"/>
<path d="M85.3214 35.5816L82.5146 31.3232L83.1289 34.2877C83.5979 36.55 85.3696 38.3159 87.6343 38.7779L92.5369 39.7785L90.2642 38.2818C88.2718 38.2572 86.4193 37.247 85.3214 35.5816Z" fill="#3A8DDE"/>
<path d="M114.472 8.38537L117.278 12.6437L116.664 9.6792C116.195 7.41694 114.423 5.65108 112.158 5.189L107.256 4.18848L109.529 5.68512C111.521 5.70974 113.373 6.71995 114.471 8.38537" fill="#3A8DDE"/>
<path d="M80.6059 21.2494C80.6059 21.2475 80.6059 21.2453 80.6059 21.2433C80.6059 21.2414 80.6059 21.2395 80.6059 21.2375C80.6216 20.7658 80.6953 20.2929 80.8295 19.8286L83.2092 11.5884L78.5349 18.6795C77.2136 20.6841 77.2136 23.2829 78.5349 25.2875L82.5135 31.3233L80.7202 22.6711C80.6222 22.1982 80.5851 21.7209 80.6053 21.2494" fill="#E62E05"/>
<path d="M121.256 18.6794L117.277 12.6436L119.071 21.2958C119.169 21.7687 119.206 22.2459 119.186 22.7174C119.186 22.7194 119.186 22.7216 119.186 22.7235C119.186 22.7255 119.186 22.7274 119.185 22.7293C119.17 23.2011 119.096 23.674 118.962 24.1383L116.582 32.3785L121.256 25.2874C122.578 23.2827 122.578 20.684 121.256 18.6794" fill="#E62E05"/>
<path d="M109.454 38.2829C109.479 38.2829 109.503 38.2821 109.528 38.2818L112.989 36.0033C114.613 34.9341 115.59 33.1207 115.59 31.1772V28.4678L105.798 38.2832H109.454L109.454 38.2829Z" fill="#F4733F"/>
<path d="M90.3383 5.68408C90.3134 5.68408 90.2885 5.68491 90.2636 5.68519L86.8032 7.96377C85.1793 9.03319 84.2021 10.8464 84.2021 12.7899V15.4993L93.9941 5.68408H90.338H90.3383Z" fill="#F4733F"/>
<path d="M90.2636 38.282L86.8032 36.0034C85.1794 34.9342 84.2022 33.1208 84.2022 31.1773V27.774L81.9898 25.1866C81.043 24.0795 80.5611 22.6714 80.6059 21.2495C80.5857 21.721 80.6228 22.1983 80.7208 22.6712L82.5141 31.3234L85.3208 35.5817C86.4187 37.2474 88.2713 38.2573 90.2636 38.282Z" fill="#5D47C2"/>
<path d="M109.528 5.68506L112.989 7.96363C114.613 9.03306 115.59 10.8462 115.59 12.7897V16.1931L117.802 18.7804C118.749 19.8875 119.231 21.2956 119.186 22.7175C119.206 22.246 119.169 21.7687 119.071 21.2959L117.278 12.6436L114.471 8.38532C113.373 6.71962 111.521 5.70968 109.528 5.68506Z" fill="#5D47C2"/>
<path d="M117.802 18.7807L115.59 16.1934V31.1772C115.59 33.1207 114.613 34.9341 112.989 36.0033L109.528 38.2819L106.622 40.1957L110.834 39.6681C113.128 39.3809 115.029 37.7559 115.67 35.5362L116.582 32.3783L118.962 24.1381C119.096 23.6741 119.17 23.2009 119.186 22.7292C119.186 22.7272 119.186 22.7253 119.186 22.7233C119.186 22.7211 119.186 22.7192 119.186 22.717C119.23 21.295 118.748 19.8869 117.802 18.7799" fill="white"/>
<path d="M88.958 4.29886C86.6645 4.58607 84.7624 6.2111 84.1215 8.43074L83.2097 11.5886L80.8301 19.8289C80.6961 20.2929 80.6224 20.766 80.6064 21.2378C80.6064 21.2397 80.6064 21.2417 80.6064 21.2436C80.6064 21.2458 80.6064 21.2478 80.6064 21.25C80.5615 22.6719 81.0435 24.0797 81.9902 25.1871L84.2026 27.7741V12.7901C84.2026 10.8466 85.1798 9.0331 86.8037 7.96395L90.2641 5.68538L93.1708 3.77148L88.9588 4.29914L88.958 4.29886Z" fill="white"/>
<path d="M112.989 7.96376L109.528 5.68519C109.503 5.68491 109.478 5.68408 109.454 5.68408H93.9941L84.2021 15.4993V31.1773C84.2021 33.1208 85.1793 34.9342 86.8032 36.0034L90.2636 38.282C90.2885 38.282 90.3134 38.2831 90.3383 38.2831H105.798L115.59 28.4676V12.7899C115.59 10.8464 114.613 9.03291 112.989 7.96376Z" fill="#E62E05"/>
<path d="M93.1892 38.2828H90.3384C90.3135 38.2828 90.2886 38.282 90.2637 38.2817L92.5364 39.7784L95.341 40.3506L99.1606 41.13L99.2633 41.1511C100.557 41.415 101.882 41.2252 103.029 40.6458C103.571 40.3719 104.074 40.0111 104.515 39.5695L105.798 38.2828H93.1895H93.1892Z" fill="#F4733F"/>
<path d="M100.146 33.931C96.2625 33.9769 92.9762 31.1518 92.4478 27.3163C92.4018 26.9489 92.6546 26.6044 93.0222 26.5355H95.9175C96.2392 26.5355 96.5149 26.7651 96.5839 27.0637C96.9974 29.062 98.9507 30.348 100.95 29.9347C102.674 29.5672 103.914 28.0512 103.891 26.2828C103.891 23.6186 101.731 22.447 99.3184 22.447C98.9278 22.447 98.6291 22.1485 98.6291 21.7581V19.2086C98.6291 18.8412 98.9278 18.5196 99.3184 18.5196H99.3413C100.904 18.5196 102.237 17.7847 102.237 16.062C102.237 14.73 101.547 13.88 100.192 13.88C99.2267 13.88 98.3993 14.569 98.2155 15.5109C98.1236 15.8094 97.8708 15.9931 97.5492 15.9931H94.7687C94.4011 15.9931 94.0794 15.6946 94.0794 15.3042V15.1893C94.47 12.9155 95.711 11.1242 97.986 10.3201C98.6753 10.0904 99.3878 9.95264 100.1 9.95264C103.524 9.9756 106.327 12.7318 106.35 16.1769C106.419 17.4632 105.96 18.7034 105.087 19.622C104.811 19.8976 104.834 20.3339 105.087 20.5865C105.133 20.6095 105.156 20.6554 105.201 20.6784C107.109 21.8499 107.982 23.8939 107.982 26.1907C108.051 30.6236 104.512 33.931 100.146 33.931" fill="white"/>
<path d="M19.34 31.1603L11.8518 12.3354C11.7821 12.1436 11.5725 12.0039 11.3632 12.0039H8.08171C7.87215 12.0039 7.68031 12.1259 7.59311 12.3354L0.0348803 31.1603C0.0174401 31.2126 0 31.2823 0 31.352C0 31.6486 0.244439 31.893 0.541198 31.893H4.83507C5.06207 31.893 5.27135 31.7535 5.34111 31.544L6.12675 29.3631C6.21395 29.1537 6.40607 29.0142 6.63279 29.0142H12.7944C13.0214 29.0142 13.2307 29.1711 13.3005 29.3806L14.0335 31.5263C14.1033 31.7358 14.3128 31.8927 14.5049 31.8927H18.8511C18.9209 31.8927 18.9732 31.8753 19.0433 31.8578C19.3226 31.7358 19.4447 31.4392 19.34 31.16M11.2583 24.9839H8.23867C8.20379 24.9839 8.15147 24.9839 8.11659 24.9665C7.88959 24.8967 7.76751 24.6524 7.83727 24.4255C7.83727 24.4255 9.70502 18.2146 9.72246 18.1797C9.72246 18.1797 9.72246 18.1623 9.7399 18.1623C9.75734 18.1449 9.79222 18.1623 9.79222 18.1797C9.80967 18.232 11.6774 24.4255 11.6597 24.443C11.6771 24.4778 11.6771 24.5301 11.6771 24.565C11.6771 24.7916 11.5025 24.9836 11.2583 24.9836M34.3164 16.9755H30.9128C30.616 16.9755 30.3716 17.2022 30.3716 17.4991V18.3712H30.3193C29.6037 17.2199 28.1199 16.4869 26.1824 16.4869C21.871 16.4869 18.6767 20.046 18.6767 24.5299C18.6767 29.0137 21.8187 32.3808 26.1824 32.3808C28.0152 32.3808 29.6734 31.5784 30.3542 30.1476L30.3716 30.5836C30.3716 33.2878 28.9927 34.7709 26.741 34.7709C25.7286 34.7709 24.8035 34.4568 24.2623 33.5495C24.1751 33.3926 24.0004 33.2878 23.826 33.2878H19.4798C19.4449 33.2878 19.41 33.2878 19.3752 33.3052C19.1482 33.3575 19.0086 33.6018 19.061 33.8284C19.6894 36.4454 22.3425 38.5389 26.3047 38.5389C30.04 38.5389 32.9724 36.9512 34.0548 34.8752C34.596 33.8459 34.8579 32.3279 34.8579 30.3042V17.4985C34.8579 17.2193 34.6134 16.975 34.3167 16.975M30.3719 24.8085V24.8262C30.2847 26.7625 28.6614 28.2804 26.7238 28.1933C24.6119 28.1933 23.2153 26.5359 23.1456 24.4944C23.0758 22.4184 24.734 20.5864 26.811 20.6387C28.993 20.691 30.5288 22.6799 30.3719 24.8085ZM43.3933 16.4692C39.0119 16.4692 35.5735 20.1852 35.5735 24.477C35.5735 28.7688 39.1169 32.3628 43.4805 32.3628C46.4129 32.3628 48.9788 30.688 50.4624 27.8267C50.4972 27.7744 50.5147 27.7044 50.5147 27.6346C50.5321 27.3903 50.34 27.1986 50.0958 27.1986H46.4129C46.2908 27.1986 46.1685 27.2509 46.0813 27.3557C45.4878 28.1756 44.5103 28.6294 43.4979 28.5945C41.8746 28.5945 40.5655 27.7221 40.1292 26.3264C40.1118 26.2916 40.1118 26.2393 40.1118 26.2041C40.1292 25.9775 40.3211 25.7855 40.5481 25.7855L50.8114 25.8032C51.021 25.8032 51.1954 25.6286 51.2303 25.4194C51.2652 25.1577 51.2826 24.8785 51.2826 24.617C51.2826 19.9937 47.7741 16.4695 43.393 16.4695M46.2557 22.7676L40.6527 22.785C40.6004 22.785 40.5481 22.7676 40.4957 22.7502C40.2687 22.663 40.1641 22.4012 40.2513 22.1918C40.8099 20.953 42.0665 20.168 43.4282 20.2203C44.9294 20.2203 46.1336 20.9879 46.6574 22.1918C46.6748 22.2441 46.6922 22.2967 46.6922 22.3487C46.6748 22.5756 46.483 22.7673 46.256 22.7673M60.4641 16.4692C58.6487 16.4692 57.3396 17.0276 56.397 18.5627H56.3447V18.1266C56.3447 17.4811 55.8209 16.975 55.1925 16.975H53.4122C52.7141 16.975 52.1554 17.5334 52.1554 18.2312V30.7577C52.1554 31.4032 52.6792 31.9093 53.3076 31.9093H55.4896C56.1354 31.9093 56.6417 31.3858 56.6417 30.7577V23.6743C56.6417 21.6506 57.3922 20.6561 59.1902 20.6561C60.8309 20.6561 61.5291 21.5983 61.5291 23.622V30.7577C61.5291 31.3858 62.0351 31.8919 62.6638 31.8919H64.8632C65.4916 31.8919 65.9977 31.3858 65.9977 30.7577V22.3833C65.9977 17.9694 63.1524 16.4689 60.4644 16.4689M74.6028 16.975H73.3112C73.0842 16.975 72.8923 16.8004 72.8923 16.5564V12.4389C72.8923 12.212 72.7002 12.0202 72.4735 12.0202H68.8603C68.6333 12.0202 68.4415 12.1948 68.4415 12.4389V16.5564C68.4415 16.783 68.2668 16.975 68.0226 16.975H66.6612C66.4345 16.975 66.2424 17.1496 66.2424 17.3936V19.9234C66.2424 20.1503 66.417 20.3421 66.6612 20.3421H67.8657C68.1799 20.3421 68.4418 20.6038 68.4418 20.9179V31.4555C68.4418 31.6998 68.6339 31.8916 68.8606 31.8567H72.4738C72.7005 31.8567 72.8926 31.665 72.8926 31.4381V20.7607C72.8926 20.5338 73.0844 20.3421 73.3114 20.3421H74.6031C74.8301 20.3421 75.022 20.1675 75.022 19.9234V17.3936C75.022 17.167 74.8473 16.975 74.6031 16.975" fill="white"/>
<path d="M133.229 32.2164C128.254 31.3614 124.519 27.1745 124.519 21.9228C124.519 15.9388 129.354 11.647 135.201 11.647C139.233 11.647 143.387 14.0894 144.906 17.8928C145.063 18.2766 144.766 18.7126 144.347 18.7126H140.001C139.687 18.7126 139.408 18.5732 139.233 18.3114C138.291 16.9158 136.807 16.1305 135.079 16.1305C131.815 16.1305 129.633 18.7649 129.633 21.9228C129.633 25.0808 131.71 27.9069 135.114 27.9069C137.278 27.9069 139.216 26.9299 139.862 24.7841C139.879 24.7493 139.844 24.697 139.809 24.697H134.625C134.241 24.697 133.927 24.3829 133.927 23.9992V21.3473C133.927 20.9461 134.241 20.6321 134.643 20.6321H145.116C145.482 20.6321 145.779 20.9287 145.796 21.295V21.3473C145.831 28.0643 139.862 33.368 133.229 32.2164Z" fill="white"/>
<path d="M150.893 23.7551V31.3268C150.893 31.6931 150.597 31.9723 150.248 31.9723H147.071C146.704 31.9723 146.425 31.6757 146.425 31.3268V17.6661C146.425 17.2998 146.722 17.0206 147.071 17.0206H149.968C150.335 17.0206 150.614 17.3172 150.614 17.6661V18.6083H150.666C151.33 17.2998 152.342 16.6891 153.703 16.5497C154.087 16.5148 154.419 16.8114 154.419 17.1952V20.388C154.419 20.7369 154.157 21.0161 153.808 21.0335C152.15 21.1555 150.893 21.679 150.893 23.7551" fill="white"/>
<path d="M161.349 32.3914C157.683 32.0076 154.891 29.3906 154.35 25.8141C153.547 20.5975 158.015 16.0266 163.286 16.6024C166.952 16.9861 169.745 19.6031 170.286 23.1797C171.089 28.3962 166.62 32.9497 161.349 32.3914ZM162.326 20.7021C160.249 20.7021 158.731 22.4467 158.731 24.4707C158.731 26.4947 160.249 28.2393 162.326 28.2393C164.403 28.2393 165.922 26.4944 165.922 24.4707C165.905 22.4644 164.403 20.7021 162.326 20.7021Z" fill="white"/>
<path d="M181.474 31.9722C181.09 31.9722 180.776 31.6582 180.776 31.2744V30.3846H180.724C179.938 32.0071 178.507 32.4606 176.831 32.4606C175.156 32.4606 173.515 31.9022 172.433 30.5763C171.211 29.0584 171.089 27.8199 171.089 25.9705V17.7183C171.089 17.3346 171.403 17.0205 171.787 17.0205H174.859C175.243 17.0205 175.557 17.3346 175.557 17.7183V25.2901C175.557 26.9823 175.941 28.2908 177.966 28.2908C179.834 28.2908 180.532 26.9649 180.532 25.2378V17.7183C180.532 17.3346 180.846 17.0205 181.23 17.0205H184.302C184.686 17.0205 185 17.3346 185 17.7183V31.2741C185 31.6579 184.686 31.972 184.302 31.972H181.474V31.9722Z" fill="white"/>
<path d="M195.282 32.4955C193.554 32.4955 192.07 31.9895 190.883 30.751C190.848 30.7161 190.778 30.7335 190.778 30.7858V36.1592C190.778 36.5953 190.412 36.9616 189.975 36.9616H187.148C186.676 36.9616 186.31 36.5779 186.31 36.1241V17.7181C186.31 17.3343 186.624 17.0029 187.025 17.0029H189.765C190.184 17.0029 190.516 17.3343 190.516 17.753V18.6603H190.603C191.755 17.2123 193.431 16.4971 195.264 16.4971C199.907 16.4971 202.577 20.3002 202.577 24.6446C202.56 28.8144 199.645 32.4955 195.281 32.4955M194.338 20.6843C192.174 20.6843 190.585 22.3765 190.585 24.5052C190.585 26.6338 192.209 28.3086 194.338 28.3086C196.468 28.3086 198.091 26.6163 198.091 24.5052C198.091 22.394 196.503 20.6843 194.338 20.6843Z" fill="white"/>
</svg>
