<svg width="204" height="44" viewBox="0 0 204 44" fill="none" xmlns="http://www.w3.org/2000/svg">
<path d="M97.263 3.33765C96.7207 3.61157 96.218 3.97238 95.7773 4.41399L94.4939 5.70034H109.953C109.978 5.70034 110.003 5.70117 110.028 5.70144L107.755 4.20481L104.951 3.63232L101.131 2.85288L101.029 2.83213C99.7351 2.56816 98.4102 2.75797 97.263 3.33737" fill="#F4733F"/>
<path d="M99.6601 41.1471L99.7626 41.1681C101.056 41.4321 102.381 41.2423 103.528 40.6626C104.071 40.3887 104.573 40.0279 105.014 39.5863L106.297 38.2999H109.953C109.978 38.2999 110.003 38.2991 110.028 38.2988L107.121 40.2127L103.576 42.5469C101.646 43.8178 99.1441 43.8178 97.2141 42.5469L93.0356 39.7952L95.8402 40.3677L99.6599 41.1471H99.6601Z" fill="#FFB259"/>
<path d="M103.577 1.45335C101.647 0.182217 99.1447 0.182217 97.2146 1.45335L93.6698 3.78754L90.7634 5.70143C90.7883 5.70116 90.8133 5.70033 90.8382 5.70033H94.494L95.7773 4.41398C96.218 3.9721 96.7208 3.61156 97.2631 3.33764C98.4102 2.75796 99.7349 2.56815 101.029 2.83239L101.131 2.85315L104.951 3.63259L107.755 4.20507L103.577 1.45363V1.45335Z" fill="#FFB259"/>
<path d="M85.8204 35.5983L83.0137 31.34L83.628 34.3045C84.0969 36.5667 85.8686 38.3326 88.1333 38.7947L93.0359 39.7952L90.7632 38.2985C88.7709 38.2739 86.9183 37.2637 85.8204 35.5983Z" fill="#3A8DDE"/>
<path d="M114.971 8.40197L117.777 12.6603L117.163 9.6958C116.694 7.43355 114.922 5.66768 112.658 5.2056L107.755 4.20508L110.028 5.70172C112.02 5.72634 113.872 6.73655 114.97 8.40197" fill="#3A8DDE"/>
<path d="M81.1054 21.266C81.1054 21.2641 81.1054 21.2619 81.1054 21.2599C81.1054 21.258 81.1054 21.2561 81.1054 21.2541C81.1212 20.7824 81.1948 20.3095 81.3291 19.8452L83.7087 11.605L79.0344 18.6961C77.7131 20.7007 77.7131 23.2995 79.0344 25.3041L83.013 31.3399L81.2197 22.6877C81.1217 22.2148 81.0846 21.7375 81.1048 21.266" fill="#E62E05"/>
<path d="M121.756 18.6961L117.777 12.6603L119.57 21.3125C119.668 21.7854 119.706 22.2627 119.685 22.7342C119.685 22.7361 119.685 22.7383 119.685 22.7402C119.685 22.7422 119.685 22.7441 119.685 22.7461C119.669 23.2178 119.596 23.6907 119.461 24.155L117.082 32.3952L121.756 25.3041C123.077 23.2994 123.077 20.7007 121.756 18.6961" fill="#E62E05"/>
<path d="M109.954 38.2995C109.979 38.2995 110.003 38.2987 110.028 38.2984L113.489 36.0199C115.113 34.9507 116.09 33.1373 116.09 31.1938V28.4844L106.298 38.2998H109.954L109.954 38.2995Z" fill="#F4733F"/>
<path d="M90.8381 5.70056C90.8132 5.70056 90.7882 5.70139 90.7633 5.70167L87.303 7.98024C85.6791 9.04967 84.7019 10.8628 84.7019 12.8063V15.5157L94.4938 5.70056H90.8378H90.8381Z" fill="#F4733F"/>
<path d="M90.7631 38.2984L87.3028 36.0199C85.6789 34.9507 84.7017 33.1373 84.7017 31.1938V27.7904L82.4893 25.2031C81.5425 24.096 81.0606 22.6879 81.1054 21.266C81.0852 21.7375 81.1223 22.2148 81.2203 22.6876L83.0136 31.3399L85.8204 35.5982C86.9183 37.2639 88.7708 38.2738 90.7631 38.2984Z" fill="#5D47C2"/>
<path d="M110.028 5.70166L113.488 7.98024C115.112 9.04966 116.089 10.8628 116.089 12.8063V16.2097L118.302 18.797C119.249 19.9041 119.731 21.3122 119.686 22.7341C119.706 22.2626 119.669 21.7853 119.571 21.3125L117.778 12.6602L114.971 8.40192C113.873 6.73622 112.02 5.72629 110.028 5.70166Z" fill="#5D47C2"/>
<path d="M118.302 18.7971L116.089 16.2097V31.1935C116.089 33.137 115.112 34.9505 113.488 36.0196L110.028 38.2982L107.122 40.2121L111.334 39.6844C113.627 39.3972 115.529 37.7722 116.17 35.5526L117.082 32.3947L119.461 24.1544C119.595 23.6904 119.669 23.2173 119.685 22.7455C119.685 22.7436 119.685 22.7416 119.685 22.7397C119.685 22.7375 119.685 22.7355 119.685 22.7333C119.73 21.3114 119.248 19.9033 118.301 18.7963" fill="#111322"/>
<path d="M89.4578 4.31522C87.1642 4.60243 85.2622 6.22745 84.6213 8.44709L83.7094 11.605L81.3298 19.8452C81.1958 20.3092 81.1222 20.7824 81.1061 21.2542C81.1061 21.2561 81.1061 21.258 81.1061 21.26C81.1061 21.2622 81.1061 21.2641 81.1061 21.2663C81.0613 22.6883 81.5433 24.0961 82.49 25.2034L84.7024 27.7905V12.8064C84.7024 10.8629 85.6796 9.04946 87.3035 7.98031L90.7638 5.70174L93.6705 3.78784L89.4586 4.3155L89.4578 4.31522Z" fill="#111322"/>
<path d="M113.488 7.98024L110.028 5.70167C110.003 5.70139 109.978 5.70056 109.953 5.70056H94.4939L84.7019 15.5157V31.1938C84.7019 33.1373 85.6791 34.9507 87.303 36.0199L90.7633 38.2984C90.7882 38.2984 90.8132 38.2996 90.8381 38.2996H106.298L116.089 28.4841V12.8063C116.089 10.8628 115.112 9.04939 113.488 7.98024Z" fill="#E62E05"/>
<path d="M93.6889 38.2996H90.8382C90.8133 38.2996 90.7883 38.2987 90.7634 38.2985L93.0362 39.7951L95.8407 40.3673L99.6604 41.1468L99.7631 41.1678C101.057 41.4317 102.382 41.2419 103.529 40.6625C104.071 40.3886 104.574 40.0278 105.015 39.5862L106.298 38.2996H93.6892H93.6889Z" fill="#F4733F"/>
<path d="M100.646 33.9474C96.7622 33.9934 93.476 31.1683 92.9475 27.3328C92.9016 26.9653 93.1543 26.6208 93.5219 26.5519H96.4173C96.739 26.5519 97.0147 26.7816 97.0836 27.0802C97.4972 29.0784 99.4505 30.3645 101.45 29.9511C103.173 29.5837 104.414 28.0677 104.391 26.2993C104.391 23.635 102.231 22.4635 99.8181 22.4635C99.4275 22.4635 99.1288 22.165 99.1288 21.7745V19.2251C99.1288 18.8576 99.4275 18.5361 99.8181 18.5361H99.8411C101.404 18.5361 102.736 17.8012 102.736 16.0785C102.736 14.7465 102.047 13.8965 100.692 13.8965C99.7265 13.8965 98.899 14.5855 98.7152 15.5273C98.6233 15.8259 98.3706 16.0096 98.0489 16.0096H95.2684C94.9008 16.0096 94.5791 15.7111 94.5791 15.3207V15.2058C94.9698 12.932 96.2108 11.1406 98.4857 10.3366C99.175 10.1069 99.8876 9.96912 100.6 9.96912C104.024 9.99208 106.827 12.7482 106.85 16.1934C106.919 17.4797 106.459 18.7198 105.586 19.6385C105.311 19.9141 105.334 20.3504 105.586 20.603C105.632 20.626 105.655 20.6719 105.701 20.6949C107.609 21.8664 108.482 23.9104 108.482 26.2072C108.551 30.6401 105.012 33.9474 100.646 33.9474" fill="white"/>
<path d="M19.84 31.1769L12.3518 12.352C12.2821 12.1602 12.0725 12.0205 11.8632 12.0205H8.58171C8.37215 12.0205 8.18031 12.1425 8.09311 12.352L0.53488 31.1769C0.51744 31.2292 0.5 31.2989 0.5 31.3686C0.5 31.6652 0.744439 31.9096 1.0412 31.9096H5.33507C5.56207 31.9096 5.77135 31.7701 5.84111 31.5606L6.62675 29.3797C6.71395 29.1703 6.90607 29.0308 7.13279 29.0308H13.2944C13.5214 29.0308 13.7307 29.1877 13.8005 29.3972L14.5335 31.5429C14.6033 31.7524 14.8128 31.9093 15.0049 31.9093H19.3511C19.4209 31.9093 19.4732 31.8919 19.5433 31.8744C19.8226 31.7524 19.9447 31.4558 19.84 31.1766M11.7583 25.0005H8.73867C8.70379 25.0005 8.65147 25.0005 8.61659 24.9831C8.38959 24.9133 8.26751 24.669 8.33727 24.4421C8.33727 24.4421 10.205 18.2312 10.2225 18.1963C10.2225 18.1963 10.2225 18.1789 10.2399 18.1789C10.2573 18.1615 10.2922 18.1789 10.2922 18.1963C10.3097 18.2486 12.1774 24.4421 12.1597 24.4596C12.1771 24.4944 12.1771 24.5467 12.1771 24.5816C12.1771 24.8082 12.0025 25.0002 11.7583 25.0002M34.8164 16.9921H31.4128C31.116 16.9921 30.8716 17.2188 30.8716 17.5157V18.3878H30.8193C30.1037 17.2365 28.6199 16.5035 26.6824 16.5035C22.371 16.5035 19.1767 20.0626 19.1767 24.5465C19.1767 29.0303 22.3187 32.3974 26.6824 32.3974C28.5152 32.3974 30.1734 31.595 30.8542 30.1642L30.8716 30.6002C30.8716 33.3044 29.4927 34.7875 27.241 34.7875C26.2286 34.7875 25.3035 34.4734 24.7623 33.5661C24.6751 33.4092 24.5004 33.3044 24.326 33.3044H19.9798C19.9449 33.3044 19.91 33.3044 19.8752 33.3218C19.6482 33.3741 19.5086 33.6184 19.561 33.845C20.1894 36.462 22.8425 38.5555 26.8047 38.5555C30.54 38.5555 33.4724 36.9678 34.5548 34.8918C35.096 33.8625 35.3579 32.3445 35.3579 30.3208V17.5151C35.3579 17.2359 35.1134 16.9916 34.8167 16.9916M30.8719 24.8251V24.8428C30.7847 26.7791 29.1614 28.297 27.2238 28.2099C25.1119 28.2099 23.7153 26.5525 23.6456 24.511C23.5758 22.435 25.234 20.603 27.311 20.6553C29.493 20.7076 31.0288 22.6965 30.8719 24.8251ZM43.8933 16.4858C39.5119 16.4858 36.0735 20.2018 36.0735 24.4936C36.0735 28.7854 39.6169 32.3794 43.9805 32.3794C46.9129 32.3794 49.4788 30.7046 50.9624 27.8433C50.9972 27.791 51.0147 27.721 51.0147 27.6512C51.0321 27.4069 50.84 27.2152 50.5958 27.2152H46.9129C46.7908 27.2152 46.6685 27.2675 46.5813 27.3723C45.9878 28.1922 45.0103 28.646 43.9979 28.6111C42.3746 28.6111 41.0655 27.7387 40.6292 26.343C40.6118 26.3082 40.6118 26.2559 40.6118 26.2207C40.6292 25.9941 40.8211 25.8021 41.0481 25.8021L51.3114 25.8198C51.521 25.8198 51.6954 25.6452 51.7303 25.436C51.7652 25.1743 51.7826 24.8951 51.7826 24.6336C51.7826 20.0103 48.2741 16.4861 43.893 16.4861M46.7557 22.7842L41.1527 22.8016C41.1004 22.8016 41.0481 22.7842 40.9957 22.7668C40.7687 22.6796 40.6641 22.4178 40.7513 22.2084C41.3099 20.9696 42.5665 20.1846 43.9282 20.2369C45.4294 20.2369 46.6336 21.0045 47.1574 22.2084C47.1748 22.2607 47.1922 22.3133 47.1922 22.3653C47.1748 22.5922 46.983 22.7839 46.756 22.7839M60.9641 16.4858C59.1487 16.4858 57.8396 17.0442 56.897 18.5793H56.8447V18.1432C56.8447 17.4977 56.3209 16.9916 55.6925 16.9916H53.9122C53.2141 16.9916 52.6554 17.55 52.6554 18.2478V30.7743C52.6554 31.4198 53.1792 31.9259 53.8076 31.9259H55.9896C56.6354 31.9259 57.1417 31.4024 57.1417 30.7743V23.6909C57.1417 21.6672 57.8922 20.6727 59.6902 20.6727C61.3309 20.6727 62.0291 21.6149 62.0291 23.6386V30.7743C62.0291 31.4024 62.5351 31.9085 63.1638 31.9085H65.3632C65.9916 31.9085 66.4977 31.4024 66.4977 30.7743V22.3999C66.4977 17.986 63.6524 16.4855 60.9644 16.4855M75.1028 16.9916H73.8112C73.5842 16.9916 73.3923 16.817 73.3923 16.573V12.4555C73.3923 12.2286 73.2002 12.0368 72.9735 12.0368H69.3603C69.1333 12.0368 68.9415 12.2114 68.9415 12.4555V16.573C68.9415 16.7996 68.7668 16.9916 68.5226 16.9916H67.1612C66.9345 16.9916 66.7424 17.1662 66.7424 17.4102V19.94C66.7424 20.1669 66.917 20.3587 67.1612 20.3587H68.3657C68.6799 20.3587 68.9418 20.6204 68.9418 20.9345V31.4721C68.9418 31.7164 69.1339 31.9082 69.3606 31.8733H72.9738C73.2005 31.8733 73.3926 31.6816 73.3926 31.4547V20.7773C73.3926 20.5504 73.5844 20.3587 73.8114 20.3587H75.1031C75.3301 20.3587 75.522 20.1841 75.522 19.94V17.4102C75.522 17.1836 75.3473 16.9916 75.1031 16.9916" fill="#111322"/>
<path d="M133.729 32.233C128.755 31.378 125.019 27.1911 125.019 21.9394C125.019 15.9554 129.854 11.6636 135.702 11.6636C139.734 11.6636 143.888 14.106 145.407 17.9094C145.564 18.2932 145.267 18.7292 144.848 18.7292H140.502C140.188 18.7292 139.908 18.5898 139.734 18.328C138.791 16.9324 137.307 16.1471 135.579 16.1471C132.315 16.1471 130.133 18.7815 130.133 21.9394C130.133 25.0974 132.21 27.9235 135.614 27.9235C137.779 27.9235 139.716 26.9465 140.362 24.8007C140.38 24.7659 140.345 24.7136 140.31 24.7136H135.126C134.742 24.7136 134.428 24.3995 134.428 24.0158V21.3639C134.428 20.9627 134.742 20.6487 135.143 20.6487H145.616C145.983 20.6487 146.279 20.9453 146.297 21.3116V21.3639C146.332 28.0809 140.362 33.3846 133.729 32.233Z" fill="#111322"/>
<path d="M151.393 23.7714V31.3431C151.393 31.7095 151.097 31.9887 150.748 31.9887H147.571C147.204 31.9887 146.925 31.6921 146.925 31.3431V17.6825C146.925 17.3161 147.222 17.037 147.571 17.037H150.468C150.835 17.037 151.114 17.3336 151.114 17.6825V18.6246H151.166C151.83 17.3161 152.842 16.7055 154.203 16.566C154.587 16.5312 154.919 16.8278 154.919 17.2115V20.4043C154.919 20.7532 154.657 21.0324 154.308 21.0498C152.65 21.1719 151.393 21.6954 151.393 23.7714" fill="#111322"/>
<path d="M161.849 32.4077C158.183 32.0239 155.391 29.407 154.85 25.8304C154.047 20.6139 158.515 16.0429 163.786 16.6187C167.452 17.0025 170.245 19.6195 170.786 23.196C171.589 28.4125 167.12 32.9661 161.849 32.4077ZM162.826 20.7185C160.749 20.7185 159.231 22.463 159.231 24.4871C159.231 26.5111 160.749 28.2556 162.826 28.2556C164.903 28.2556 166.422 26.5108 166.422 24.4871C166.405 22.4808 164.903 20.7185 162.826 20.7185Z" fill="#111322"/>
<path d="M181.975 31.9888C181.591 31.9888 181.276 31.6748 181.276 31.291V30.4012H181.224C180.439 32.0237 179.007 32.4772 177.332 32.4772C175.656 32.4772 174.015 31.9188 172.933 30.5929C171.711 29.075 171.589 27.8365 171.589 25.9871V17.7349C171.589 17.3512 171.903 17.0371 172.287 17.0371H175.359C175.743 17.0371 176.057 17.3512 176.057 17.7349V25.3067C176.057 26.9989 176.441 28.3074 178.466 28.3074C180.334 28.3074 181.032 26.9815 181.032 25.2544V17.7349C181.032 17.3512 181.346 17.0371 181.73 17.0371H184.802C185.186 17.0371 185.5 17.3512 185.5 17.7349V31.2907C185.5 31.6745 185.186 31.9886 184.802 31.9886H181.975V31.9888Z" fill="#111322"/>
<path d="M195.782 32.5122C194.054 32.5122 192.57 32.0062 191.383 30.7677C191.348 30.7328 191.278 30.7503 191.278 30.8026V36.176C191.278 36.612 190.912 36.9784 190.475 36.9784H187.648C187.176 36.9784 186.81 36.5946 186.81 36.1408V17.7348C186.81 17.3511 187.124 17.0196 187.525 17.0196H190.265C190.684 17.0196 191.016 17.3511 191.016 17.7697V18.677H191.103C192.255 17.229 193.931 16.5138 195.764 16.5138C200.407 16.5138 203.077 20.317 203.077 24.6613C203.06 28.8311 200.145 32.5122 195.781 32.5122M194.838 20.701C192.674 20.701 191.085 22.3933 191.085 24.5219C191.085 26.6505 192.709 28.3253 194.838 28.3253C196.968 28.3253 198.591 26.6331 198.591 24.5219C198.591 22.4107 197.003 20.701 194.838 20.701Z" fill="#111322"/>
</svg>
