<?xml version="1.0" encoding="UTF-8"?>
<svg xmlns="http://www.w3.org/2000/svg" width="219" height="35" viewBox="0 0 219 35" fill="none">
  <g clip-path="url(#clip0_3190_272945)">
    <path d="M70.3527 30.2451C68.9989 30.2451 67.6552 30.0276 66.3717 29.6007L66.2753 29.5705C66.0945 29.5141 65.9318 29.4618 65.7711 29.4014L65.4156 29.2745L65.4297 29.2443C64.2285 28.7329 63.1117 28.0382 62.1235 27.1845L62.1115 27.1986L61.6133 26.7254C59.2593 24.4723 57.8673 21.3896 57.7328 18.1297L57.7267 18.0311C57.7227 17.9666 57.7187 17.9022 57.7167 17.8357C57.7107 17.5559 57.7167 17.276 57.7307 16.9981L57.7408 16.8149C57.7549 16.5813 57.7749 16.3518 57.801 16.1202L57.8151 15.9833C57.8493 15.7175 57.8894 15.4517 57.9396 15.19L57.9597 15.0954C58.016 14.8255 58.0642 14.6141 58.1184 14.4047L58.1706 14.2054C58.2409 13.9517 58.3152 13.702 58.3976 13.4563C58.486 13.2047 58.5764 12.9691 58.6728 12.7355L58.7571 12.5382C58.8033 12.4315 58.8495 12.3268 58.8897 12.216L58.9419 12.1153C58.9801 12.0549 59.0122 11.9905 59.0424 11.9261L59.0966 11.8173C59.2091 11.5979 59.3276 11.3824 59.4521 11.169L59.6409 10.8468H59.6449C60.0446 10.1884 60.5066 9.56624 61.0248 8.99641C61.2397 8.76687 61.5973 8.74875 61.8343 8.95614L62.5293 9.57026L62.2983 9.82598C62.2702 9.8582 62.244 9.8884 62.2219 9.9186L62.9551 10.5871C62.9752 10.5629 62.9973 10.5408 63.0173 10.5166L63.2524 10.2528L64.0216 10.9938C64.2446 11.2073 64.2546 11.5596 64.0437 11.7851C60.9505 15.1658 61.061 20.3889 64.2908 23.6387C64.5137 23.8803 64.4997 24.2569 64.2627 24.4824C63.9594 24.72 63.9031 25.1569 64.1381 25.4629C64.5921 26.0932 65.265 26.5281 66.0242 26.6852C66.6649 26.8221 66.7674 26.5402 66.8658 26.2684L66.902 26.1757C66.9702 25.9784 67.1169 25.8193 67.3077 25.7368C67.5326 25.6683 67.7757 25.6985 67.9766 25.8193C69.9409 26.4778 71.9315 26.3247 74.0184 25.3381C78.2947 23.3165 80.1265 18.2042 78.1099 13.9195C77.1719 11.9261 75.5067 10.3716 73.458 9.5763C73.1708 9.46757 73.0241 9.14541 73.1306 8.85748L74.1268 6.0748C74.1791 5.92982 74.2875 5.81304 74.4261 5.74861C74.5647 5.68418 74.7214 5.67813 74.864 5.7325C81.3899 8.22121 84.6679 15.5403 82.1853 22.0823C81.0223 25.1468 78.7205 27.6416 75.7618 29.039L75.4626 29.1698C75.2898 29.2443 75.1773 29.2927 75.0649 29.337C73.6488 29.9088 72.1404 30.2148 70.6118 30.2451C70.5234 30.2451 70.4371 30.2471 70.3487 30.2471" fill="#E43D30"></path>
    <path d="M69.6615 35.003C62.0208 34.9829 55.276 29.9914 53.0103 22.6762C52.0643 19.6761 51.9598 16.4706 52.709 13.4141C52.7572 13.1946 52.9661 13.0476 53.1891 13.0778C53.5325 11.8355 54.0046 10.6334 54.5991 9.48972C55.3081 8.14067 56.1999 6.8943 57.2484 5.79089C57.1862 5.71639 57.148 5.62578 57.14 5.52712C57.1339 5.39624 57.1842 5.26939 57.2806 5.1808C58.8111 3.62636 60.6229 2.38 62.6174 1.5021L62.8102 1.40948C62.9247 1.36116 63.0392 1.31485 63.1537 1.27055L63.4971 1.13363C63.8145 1.01282 64.1419 0.900061 64.4673 0.797372L64.5155 0.781264C64.5637 0.767169 64.6119 0.753075 64.6601 0.740994L64.7605 0.712804C64.9373 0.660453 65.1141 0.608101 65.2928 0.561791C65.3852 0.537628 65.4776 0.51548 65.572 0.493331L65.6624 0.471182C65.8331 0.430912 65.9757 0.398696 66.1204 0.366479C66.2569 0.33829 66.3915 0.312115 66.5281 0.287952L66.6145 0.271844C66.7229 0.251709 66.8334 0.231574 66.9459 0.213452C67.1166 0.185263 67.2894 0.163114 67.4601 0.140966C67.5826 0.124857 67.679 0.112776 67.7734 0.102709C67.9642 0.0805601 68.1551 0.0664655 68.3479 0.0483439L68.603 0.0302222C68.8119 0.0161276 69.0208 0.00807352 69.2297 0.00203298L69.4365 -0.00199406C69.6615 -0.00602109 69.8844 -0.00199406 70.1074 0.00203298L70.2721 0.00606001C70.5111 0.0141141 70.7481 0.0261952 70.9852 0.0443168L71.1077 0.0543844C71.3608 0.0745196 71.6138 0.102709 71.8649 0.132912L71.9433 0.142979C72.2144 0.177209 72.4856 0.219493 72.7527 0.269831C74.5263 0.587966 76.2396 1.17793 77.8324 2.01958L78.0212 2.12025L78.0172 2.12629C81.2751 3.89013 83.8823 6.65469 85.455 10.0153C85.6278 10.3414 85.6097 10.7361 85.4088 11.0462C85.2501 11.2958 84.9689 11.4388 84.6737 11.4207C84.288 11.3663 83.9667 11.1005 83.8421 10.7321C82.4964 7.88696 80.3251 5.51705 77.6135 3.9304C77.503 3.86597 77.3725 3.84785 77.2479 3.88409C77.1274 3.91832 77.027 3.99886 76.9707 4.10961L76.9065 4.23042C76.6916 4.64722 76.1834 4.82038 75.7596 4.61903C68.6652 1.25645 60.195 4.29686 56.8427 11.4066C53.6912 18.0874 56.1598 26.073 62.527 29.796C62.9307 30.0336 63.0773 30.5491 62.8544 30.9639L62.7901 31.0867C62.7319 31.1954 62.7218 31.3243 62.762 31.4431C62.8022 31.5659 62.8926 31.6666 63.0091 31.721C70.3745 35.156 79.136 32.4176 83.2496 25.3945C83.4846 24.9797 84.0048 24.8247 84.4286 25.0441C84.6415 25.1549 84.7982 25.3482 84.8645 25.5797C84.9308 25.8153 84.8986 26.067 84.7761 26.2784C81.6427 31.6726 75.8881 34.9929 69.6615 34.999" fill="#E43D30"></path>
    <path d="M70.9333 11.5536L70.8971 11.314C70.855 11.0442 70.622 10.8489 70.3508 10.8529C66.655 10.9677 63.6944 13.9618 63.61 17.6666C63.604 17.9425 63.8068 18.1781 64.08 18.2103L64.317 18.2405C64.542 21.4682 67.1632 24.0052 70.391 24.1139C70.5537 24.1159 70.7124 24.0495 70.8228 23.9287C70.9112 23.83 70.9574 23.6991 70.9494 23.5642V23.4233C72.4759 23.2964 73.8899 22.5736 74.8882 21.4098C75.7158 20.5158 76.1777 19.3419 76.1797 18.1217H76.3083C76.3083 18.1217 76.3183 18.1217 76.3244 18.1217C76.6216 18.1116 76.8526 17.862 76.8406 17.564C76.6919 14.3423 74.145 11.7529 70.9353 11.5556L70.9333 11.5536ZM70.4613 14.3947C71.8733 14.3947 73.1407 15.2645 73.6549 16.5834C73.8076 16.978 73.8859 17.3968 73.8879 17.8217C73.8899 19.7164 72.3594 21.2527 70.4713 21.2547C68.5812 21.2567 67.0487 19.7224 67.0467 17.8297C67.0447 15.935 68.5752 14.3987 70.4633 14.3967L70.4613 14.3947Z" fill="#E43D30"></path>
    <path d="M3.03283 26.5261V14.4692C3.03283 14.1309 2.75765 13.8551 2.42021 13.8551H1.11262C0.775176 13.8551 0.5 13.5792 0.5 13.241V10.569C0.5 10.2307 0.775176 9.9549 1.11262 9.9549H2.42021C2.75765 9.9549 3.03283 9.67904 3.03283 9.34077V4.84258C3.03283 4.50431 3.306 4.22845 3.64545 4.22845H7.54813C7.88557 4.22845 8.16075 4.50431 8.16075 4.84258V9.34279C8.16075 9.68106 8.43593 9.95691 8.77337 9.95691H10.0187C10.3561 9.95691 10.6313 10.2307 10.6313 10.571V13.243C10.6313 13.5812 10.3561 13.8571 10.0187 13.8571H8.77337C8.43593 13.8571 8.16075 14.1309 8.16075 14.4712V26.5261C8.16075 26.8644 7.88758 27.1403 7.54813 27.1403H3.64746C3.31001 27.1403 3.03484 26.8644 3.03484 26.5261" fill="#0C2A31"></path>
    <path d="M22.9782 27.1403C22.6407 27.1403 22.3676 26.8664 22.3676 26.5282V17.6969C22.3676 15.4659 21.5019 14.1974 19.6178 14.1974C17.7338 14.1974 16.7455 15.3431 16.7455 17.4794V26.5282C16.7455 26.8664 16.4724 27.1403 16.1349 27.1403H12.2302C11.8928 27.1403 11.6196 26.8664 11.6196 26.5282V4.84056C11.6196 4.50229 11.8928 4.22845 12.2302 4.22845H16.1349C16.4724 4.22845 16.7455 4.50229 16.7455 4.84056V9.95288C16.7435 10.2891 17.0147 10.565 17.3501 10.567C17.4827 10.567 17.6133 10.5247 17.7197 10.4442C18.726 9.70723 19.9472 9.32869 21.1926 9.36896C25.1153 9.36896 27.4935 11.8456 27.4935 16.3357V26.5282C27.4935 26.8664 27.2203 27.1403 26.8829 27.1403H22.9782Z" fill="#0C2A31"></path>
    <path d="M28.6685 7.5125V4.8466C28.6685 4.50632 28.9436 4.22845 29.2851 4.22845H33.1797C33.5192 4.22845 33.7964 4.50431 33.7964 4.8466V7.5125C33.7964 7.85278 33.5212 8.13065 33.1797 8.13065H29.2851C28.9456 8.13065 28.6685 7.8548 28.6685 7.5125ZM28.6685 26.5241V10.573C28.6685 10.2328 28.9436 9.9549 29.2851 9.9549H33.1797C33.5192 9.9549 33.7964 10.2307 33.7964 10.573V26.5221C33.7964 26.8624 33.5212 27.1403 33.1797 27.1403H29.2851C28.9456 27.1403 28.6685 26.8644 28.6685 26.5221" fill="#0C2A31"></path>
    <path d="M175.541 7.5125V4.8466C175.541 4.50632 175.816 4.22845 176.157 4.22845H180.052C180.391 4.22845 180.668 4.50431 180.668 4.8466V7.5125C180.668 7.85278 180.393 8.13065 180.052 8.13065H176.157C175.818 8.13065 175.541 7.8548 175.541 7.5125ZM175.541 26.5241V10.573C175.541 10.2328 175.816 9.9549 176.157 9.9549H180.052C180.391 9.9549 180.668 10.2307 180.668 10.573V26.5221C180.668 26.8624 180.393 27.1403 180.052 27.1403H176.157C175.818 27.1403 175.541 26.8644 175.541 26.5221" fill="#0C2A31"></path>
    <path d="M44.0745 14.7853C43.8093 14.7893 43.5723 14.6182 43.49 14.3645C43.2951 13.7041 42.6805 13.4866 41.9775 13.4866C41.1118 13.4866 40.4952 13.9819 40.4952 14.6323C40.4952 15.5605 41.3287 16.0256 43.7069 16.6438C47.7843 17.7271 49.112 19.3681 49.112 21.8769C49.112 25.469 46.0228 27.7282 42.1322 27.7282C38.5509 27.7282 35.9256 25.8375 35.2688 22.7709C35.2026 22.4367 35.4175 22.1105 35.7509 22.044C35.7911 22.036 35.8332 22.032 35.8754 22.032H39.7781C40.0412 22.038 40.2702 22.2092 40.3506 22.4608C40.6277 23.2481 41.3207 23.6106 42.1944 23.6106C43.0682 23.6106 43.9861 23.085 43.9861 22.2796C43.9861 21.3192 43.3996 20.8239 40.8346 20.0205C36.5101 18.6895 35.3673 16.9861 35.3673 14.9746C35.3673 11.5677 38.5489 9.37097 42.0076 9.37097C45.4664 9.37097 47.949 11.1268 48.4934 14.0685C48.5516 14.4048 48.3267 14.7229 47.9912 14.7813C47.9551 14.7873 47.9209 14.7914 47.8848 14.7893H44.0725L44.0745 14.7853Z" fill="#0C2A31"></path>
    <path d="M110.924 27.1402C110.583 27.1402 110.308 26.8644 110.308 26.5221V17.8821C110.308 15.188 109.442 14.1974 107.682 14.1974C105.736 14.1974 104.84 15.3732 104.84 17.6344V26.5221C104.84 26.8644 104.565 27.1402 104.224 27.1402H100.331C99.9895 27.1402 99.7143 26.8644 99.7143 26.5221V17.6666C99.7143 15.4357 98.9109 14.1994 97.1514 14.1994C95.1448 14.1994 94.249 15.5001 94.249 17.8841V26.5241C94.249 26.8664 93.9738 27.1422 93.6323 27.1422H89.7397C89.3982 27.1422 89.123 26.8664 89.123 26.5241V10.575C89.123 10.2327 89.3982 9.95688 89.7397 9.95688H93.2929C93.6343 9.95688 93.9095 10.2347 93.9095 10.575V11.7811H93.9718C94.8676 10.1723 96.5046 9.36692 98.698 9.36692C100.49 9.32867 102.179 10.2066 103.179 11.6986C103.376 11.9724 103.758 12.0328 104.029 11.8355C104.071 11.8053 104.109 11.769 104.141 11.7288C105.324 10.2066 107.152 9.33269 109.076 9.36692C112.907 9.36692 115.44 11.7207 115.44 16.5189V26.5201C115.44 26.8624 115.164 27.1382 114.823 27.1382H110.93L110.924 27.1402Z" fill="#0C2A31"></path>
    <path d="M150.801 16.5814C150.574 16.5773 150.367 16.4505 150.26 16.2491C149.545 14.9021 148.119 14.0907 146.599 14.1672C144.251 14.1672 142.646 16.1183 142.646 18.5325C142.646 20.9467 144.345 22.8978 146.723 22.8978C148.18 22.9582 149.547 22.191 150.256 20.9145C150.365 20.7272 150.564 20.6104 150.781 20.6064H154.832C155.173 20.6064 155.449 20.8822 155.451 21.2225C155.451 21.287 155.441 21.3494 155.423 21.4098C154.326 24.7925 151.355 27.2188 147.83 27.6154C142.758 28.2195 138.157 24.5871 137.554 19.503C137.508 19.1204 137.488 18.7358 137.49 18.3513C137.51 13.3879 141.525 9.37298 146.476 9.36694C150.706 9.36694 154.203 11.8738 155.41 15.788C155.507 16.1142 155.322 16.4585 154.997 16.5552C154.938 16.5733 154.88 16.5814 154.82 16.5814H150.803H150.801Z" fill="#0C2A31"></path>
    <path d="M168.589 27.1403C168.249 27.1403 167.972 26.8644 167.972 26.5221V17.6969C167.972 15.4659 167.106 14.1974 165.222 14.1974C163.338 14.1974 162.35 15.3431 162.35 17.4794V26.5221C162.35 26.8624 162.075 27.1403 161.733 27.1403H157.839C157.499 27.1403 157.222 26.8644 157.222 26.5221V4.8466C157.222 4.50632 157.497 4.22845 157.839 4.22845H161.733C162.073 4.22845 162.35 4.50431 162.35 4.8466V9.94282C162.348 10.2831 162.619 10.561 162.959 10.563C163.095 10.563 163.226 10.5207 163.334 10.4381C164.339 9.70522 165.558 9.32869 166.799 9.36896C170.722 9.36896 173.1 11.8456 173.1 16.3357V26.5241C173.1 26.8644 172.825 27.1423 172.483 27.1423H168.587L168.589 27.1403Z" fill="#0C2A31"></path>
    <path d="M194.465 27.1402C194.128 27.1402 193.854 26.8664 193.854 26.5281V17.6042C193.854 15.2826 193.051 14.1973 191.167 14.1973C189.098 14.1973 188.232 15.343 188.232 17.6646V26.5261C188.232 26.8643 187.959 27.1382 187.622 27.1382H183.715C183.378 27.1382 183.104 26.8643 183.104 26.5261V10.569C183.104 10.2307 183.378 9.95684 183.715 9.95684H187.28C187.618 9.95684 187.891 10.2307 187.891 10.569V11.7831H187.953C189.034 10.0172 190.548 9.3689 192.617 9.3689C195.706 9.3689 198.98 11.1025 198.98 16.1806V26.5281C198.98 26.8664 198.707 27.1402 198.37 27.1402H194.463H194.465Z" fill="#0C2A31"></path>
    <path d="M206.324 20.1131C205.984 20.1131 205.707 20.3869 205.705 20.7272C205.705 20.7997 205.717 20.8722 205.743 20.9427C206.308 22.4226 207.76 23.3649 209.546 23.3649C210.691 23.4092 211.785 22.8958 212.48 21.9836C212.599 21.8407 212.774 21.7561 212.958 21.7541H216.931C217.271 21.7541 217.546 22.0279 217.548 22.3662C217.548 22.4649 217.524 22.5635 217.48 22.6521C215.76 25.8496 212.86 27.698 209.546 27.698C204.534 27.702 200.467 23.6327 200.463 18.607V18.5929C200.463 13.6396 204.416 9.36694 209.451 9.36694C214.487 9.36694 218.502 13.4222 218.502 18.7479C218.502 19.0238 218.49 19.2996 218.462 19.5755C218.424 19.8835 218.161 20.1131 217.851 20.1111H206.326L206.324 20.1131ZM212.496 16.6458C212.838 16.6438 213.115 16.3639 213.113 16.0196C213.113 15.9189 213.087 15.8203 213.041 15.7317C211.87 13.7604 209.325 13.1141 207.358 14.288C206.766 14.6424 206.272 15.1377 205.918 15.7317C205.758 16.0337 205.872 16.4102 206.173 16.5733C206.262 16.6196 206.36 16.6458 206.461 16.6458H212.496Z" fill="#0C2A31"></path>
    <path d="M135.21 9.95684H131.301C130.964 9.95684 130.693 10.2307 130.693 10.569V11.7831H130.63C129.642 10.2065 127.698 9.3689 125.597 9.3689C120.686 9.3689 117.01 13.4563 117.01 18.5344C117.01 23.6125 120.531 27.7302 125.597 27.7302C127.851 27.7302 129.889 26.8019 130.63 25.2837H130.693V26.5301C130.693 26.8684 130.966 27.1402 131.301 27.1402H135.21C135.548 27.1402 135.819 26.8664 135.819 26.5301V10.5669C135.819 10.2287 135.545 9.95483 135.21 9.95483V9.95684ZM130.687 18.77C130.685 18.8626 130.679 18.9532 130.671 19.0438C130.452 21.4017 128.365 23.1353 126.013 22.9158C123.661 22.6964 121.931 20.6043 122.15 18.2465C122.333 15.7054 124.48 13.8168 127.027 14.2235C129.09 14.5537 130.789 16.68 130.687 18.77Z" fill="#0C2A31"></path>
  </g>
  <defs>
    <clipPath id="clip0_3190_272945">
      <rect width="218" height="35" fill="white" transform="translate(0.5)"></rect>
    </clipPath>
  </defs>
</svg>
